<?xml version="1.0" encoding="utf-8"?>
<!-- Generator: Adobe Illustrator 17.1.0, SVG Export Plug-In . SVG Version: 6.00 Build 0)  -->
<!DOCTYPE svg PUBLIC "-//W3C//DTD SVG 1.1//EN" "http://www.w3.org/Graphics/SVG/1.1/DTD/svg11.dtd">
<svg version="1.1" id="Camada_1" xmlns="http://www.w3.org/2000/svg" xmlns:xlink="http://www.w3.org/1999/xlink" x="0px" y="0px"
	 viewBox="0 0 29.9 5.9" enable-background="new 0 0 29.9 5.9" xml:space="preserve">
<rect x="0.8" y="0.5" fill="none" stroke="#FFFFFF" stroke-width="0.5" stroke-miterlimit="10" width="4.5" height="4.5"/>
<g>
	<path fill="#FFFFFF" d="M2.7,4H2.4V1.8h0.3c0.7,0,0.9,0.2,0.9,0.6c0,0.5-0.4,0.6-0.8,0.6H2.7V4z M2.7,2.9L2.7,2.9
		c0.4,0,0.7-0.1,0.7-0.4c0-0.3-0.3-0.4-0.6-0.4H2.7V2.9z"/>
</g>
<g>
	<path fill="#FFFFFF" d="M8,4.7H7.5V0.9H8c1.2,0,1.5,0.4,1.5,1.1c0,0.8-0.6,1.1-1.3,1.1H8V4.7z M8,2.7h0.2c0.5,0,1-0.1,1-0.7
		c0-0.6-0.6-0.7-1-0.7H8V2.7z"/>
	<path fill="#FFFFFF" d="M10.5,4.2h1.1v0.4H10V0.9h0.5V4.2z"/>
	<polygon fill="#FFFFFF" points="13.2,0.7 11.4,4.7 11.9,4.7 13.2,1.7 14.5,4.7 15,4.7 	"/>
	<path fill="#FFFFFF" d="M15.9,4.7h-0.5V1.3h-0.9V0.9h2.3v0.4h-0.9V4.7z"/>
	<path fill="#FFFFFF" d="M17.5,4.7h-0.5V0.9h0.5V4.7z"/>
	<path fill="#FFFFFF" d="M18.2,0.7l2.8,3V0.9h0.5v3.9l-2.8-3v2.8h-0.5V0.7z"/>
	<path fill="#FFFFFF" d="M22.5,4.7h-0.5V0.9h0.5V4.7z"/>
	<path fill="#FFFFFF" d="M26.9,2.8c0,1.1-0.9,2-2,2c-1.1,0-2-0.8-2-2c0-1.1,0.9-2,2-2S26.9,1.7,26.9,2.8z M26.4,2.8
		c0-0.8-0.6-1.5-1.5-1.5s-1.5,0.7-1.5,1.5c0,0.9,0.7,1.5,1.5,1.5C25.7,4.3,26.4,3.6,26.4,2.8z"/>
	<path fill="#FFFFFF" d="M29,1.6c-0.1-0.2-0.3-0.4-0.6-0.4c-0.3,0-0.6,0.2-0.6,0.5c0,0.3,0.3,0.5,0.5,0.5l0.3,0.1
		c0.5,0.2,0.9,0.5,0.9,1.1c0,0.7-0.5,1.2-1.2,1.2c-0.6,0-1.1-0.5-1.2-1.1l0.5-0.1c0,0.4,0.3,0.7,0.7,0.7S29,4,29,3.6
		c0-0.4-0.3-0.6-0.7-0.7l-0.3-0.1c-0.4-0.2-0.8-0.4-0.8-1c0-0.6,0.5-1,1.1-1c0.4,0,0.8,0.2,1,0.6L29,1.6z"/>
</g>
</svg>
