<?xml version="1.0" encoding="utf-8"?>
<!-- Generator: Adobe Illustrator 17.1.0, SVG Export Plug-In . SVG Version: 6.00 Build 0)  -->
<!DOCTYPE svg PUBLIC "-//W3C//DTD SVG 1.1//EN" "http://www.w3.org/Graphics/SVG/1.1/DTD/svg11.dtd">
<svg version="1.1" id="Camada_1" xmlns="http://www.w3.org/2000/svg" xmlns:xlink="http://www.w3.org/1999/xlink" x="0px" y="0px"
	 viewBox="0 0 326.2 58.3" enable-background="new 0 0 326.2 58.3" xml:space="preserve">
<rect x="33" y="4.2" fill="none" stroke="#FFFFFF" stroke-width="2" stroke-miterlimit="10" width="45.3" height="45.3"/>
<g>
	<g>
		<path fill="#F6F6F6" d="M109.7,4.3c2.8,0,5.2,0.4,7.2,1.2c2,0.8,3.6,1.9,4.8,3.3c1.2,1.4,2.2,2.9,2.7,4.6c0.6,1.7,0.9,3.5,0.9,5.4
			c0,1.8-0.3,3.6-0.9,5.4c-0.6,1.8-1.5,3.3-2.7,4.7c-1.2,1.4-2.9,2.4-4.8,3.3c-2,0.8-4.4,1.2-7.2,1.2H99.2v16.2h-10V4.3H109.7z
			 M107,25.6c1.1,0,2.2-0.1,3.3-0.3c1.1-0.2,2-0.5,2.8-1c0.8-0.5,1.4-1.2,1.9-2.1c0.5-0.9,0.7-2,0.7-3.5c0-1.4-0.2-2.6-0.7-3.5
			c-0.5-0.9-1.1-1.6-1.9-2.1c-0.8-0.5-1.7-0.8-2.8-1c-1.1-0.2-2.2-0.3-3.3-0.3h-7.7v13.6H107z"/>
		<path fill="#F6F6F6" d="M136.8,4.3v45.3h-9V4.3H136.8z"/>
		<path fill="#F6F6F6" d="M142.9,21.6c0.9-1.4,2.1-2.5,3.5-3.4c1.4-0.8,3.1-1.4,4.8-1.8c1.8-0.4,3.6-0.5,5.4-0.5
			c1.6,0,3.3,0.1,5,0.3c1.7,0.2,3.2,0.7,4.6,1.4c1.4,0.7,2.5,1.6,3.4,2.8c0.9,1.2,1.3,2.8,1.3,4.8v17c0,1.5,0.1,2.9,0.3,4.2
			c0.2,1.4,0.5,2.4,0.9,3h-9.1c-0.2-0.5-0.3-1-0.4-1.6c-0.1-0.5-0.2-1.1-0.2-1.6c-1.4,1.5-3.1,2.5-5.1,3.1c-1.9,0.6-3.9,0.9-6,0.9
			c-1.6,0-3-0.2-4.4-0.6c-1.4-0.4-2.5-1-3.5-1.8c-1-0.8-1.8-1.8-2.4-3c-0.6-1.2-0.9-2.7-0.9-4.4c0-1.9,0.3-3.4,1-4.6
			c0.7-1.2,1.5-2.2,2.5-2.9c1-0.7,2.2-1.3,3.5-1.6c1.3-0.4,2.7-0.6,4-0.9c1.4-0.2,2.7-0.4,4-0.5s2.5-0.3,3.5-0.6
			c1-0.3,1.8-0.6,2.4-1.1c0.6-0.5,0.9-1.2,0.8-2.1c0-1-0.2-1.7-0.5-2.3c-0.3-0.6-0.7-1-1.3-1.3c-0.5-0.3-1.1-0.5-1.8-0.6
			c-0.7-0.1-1.4-0.2-2.3-0.2c-1.8,0-3.2,0.4-4.2,1.1c-1,0.8-1.6,2-1.8,3.8h-9C141.4,24.8,141.9,23,142.9,21.6z M160.6,34.3
			c-0.6,0.2-1.2,0.3-1.8,0.5c-0.7,0.1-1.3,0.2-2.1,0.3c-0.7,0.1-1.4,0.2-2.2,0.3c-0.7,0.1-1.3,0.3-2,0.5c-0.7,0.2-1.2,0.5-1.7,0.9
			c-0.5,0.4-0.9,0.8-1.2,1.4c-0.3,0.5-0.4,1.2-0.4,2.1c0,0.8,0.1,1.5,0.4,2c0.3,0.5,0.7,1,1.2,1.3c0.5,0.3,1.1,0.5,1.8,0.7
			c0.7,0.1,1.4,0.2,2.1,0.2c1.8,0,3.1-0.3,4.1-0.9c1-0.6,1.7-1.3,2.2-2.1c0.5-0.8,0.7-1.7,0.9-2.5c0.1-0.8,0.2-1.5,0.2-2v-3.4
			C161.7,33.9,161.2,34.1,160.6,34.3z"/>
		<path fill="#F6F6F6" d="M193.8,16.8v6h-6.6v16.2c0,1.5,0.3,2.5,0.8,3c0.5,0.5,1.5,0.8,3,0.8c0.5,0,1,0,1.5-0.1
			c0.5,0,0.9-0.1,1.3-0.2v7c-0.8,0.1-1.6,0.2-2.5,0.3c-0.9,0-1.8,0.1-2.7,0.1c-1.4,0-2.7-0.1-4-0.3c-1.2-0.2-2.3-0.6-3.3-1.1
			c-1-0.5-1.7-1.3-2.3-2.3c-0.5-1-0.8-2.3-0.8-4V22.8h-5.5v-6h5.5V7h9v9.8H193.8z"/>
		<path fill="#F6F6F6" d="M196.5,11.7V4.3h9v7.4H196.5z M205.5,16.8v32.8h-9V16.8H205.5z"/>
		<path fill="#F6F6F6" d="M218.9,16.8v4.6h0.2c1.1-1.9,2.6-3.3,4.4-4.2c1.8-0.9,3.7-1.3,5.6-1.3c2.4,0,4.4,0.3,5.9,1
			c1.5,0.7,2.8,1.6,3.6,2.7c0.9,1.2,1.5,2.6,1.9,4.2c0.4,1.7,0.5,3.5,0.5,5.5v20.2h-9V31.1c0-2.7-0.4-4.7-1.3-6.1
			c-0.8-1.3-2.3-2-4.5-2c-2.5,0-4.2,0.7-5.3,2.2c-1.1,1.5-1.6,3.9-1.6,7.2v17.2h-9V16.8H218.9z"/>
		<path fill="#F6F6F6" d="M245.9,11.7V4.3h9v7.4H245.9z M254.9,16.8v32.8h-9V16.8H254.9z"/>
		<path fill="#F6F6F6" d="M259.6,26.1c0.8-2.1,1.9-4,3.4-5.5c1.5-1.5,3.3-2.7,5.3-3.5c2.1-0.8,4.4-1.2,7-1.2c2.6,0,4.9,0.4,7,1.2
			c2.1,0.8,3.9,2,5.4,3.5c1.5,1.5,2.6,3.3,3.4,5.5c0.8,2.1,1.2,4.5,1.2,7.1s-0.4,5-1.2,7.1c-0.8,2.1-1.9,3.9-3.4,5.4
			c-1.5,1.5-3.3,2.7-5.4,3.5c-2.1,0.8-4.4,1.2-7,1.2c-2.6,0-4.9-0.4-7-1.2c-2.1-0.8-3.8-2-5.3-3.5c-1.5-1.5-2.6-3.3-3.4-5.4
			c-0.8-2.1-1.2-4.5-1.2-7.1S258.8,28.2,259.6,26.1z M267.8,37.1c0.3,1.2,0.7,2.4,1.3,3.4c0.6,1,1.4,1.8,2.4,2.4
			c1,0.6,2.3,0.9,3.8,0.9s2.8-0.3,3.8-0.9c1-0.6,1.9-1.4,2.5-2.4c0.6-1,1-2.1,1.3-3.4c0.3-1.2,0.4-2.5,0.4-3.8
			c0-1.3-0.1-2.6-0.4-3.9c-0.3-1.3-0.7-2.4-1.3-3.4c-0.6-1-1.4-1.8-2.5-2.4c-1-0.6-2.3-0.9-3.8-0.9s-2.8,0.3-3.8,0.9
			c-1,0.6-1.8,1.4-2.4,2.4c-0.6,1-1,2.1-1.3,3.4c-0.3,1.3-0.4,2.6-0.4,3.9C267.4,34.5,267.6,35.8,267.8,37.1z"/>
		<path fill="#F6F6F6" d="M303.1,41.4c0.4,0.7,0.9,1.3,1.6,1.7c0.6,0.4,1.4,0.8,2.2,1c0.8,0.2,1.7,0.3,2.6,0.3c0.6,0,1.3-0.1,2-0.2
			c0.7-0.1,1.3-0.4,1.9-0.7c0.6-0.3,1-0.7,1.4-1.3c0.4-0.5,0.6-1.2,0.6-2c0-1.4-0.9-2.4-2.7-3c-1.8-0.7-4.3-1.4-7.5-2
			c-1.3-0.3-2.6-0.6-3.8-1c-1.2-0.4-2.4-0.9-3.3-1.6c-1-0.7-1.8-1.5-2.3-2.5c-0.6-1-0.9-2.2-0.9-3.6c0-2.1,0.4-3.8,1.2-5.2
			c0.8-1.4,1.9-2.4,3.3-3.2c1.4-0.8,2.9-1.3,4.6-1.6c1.7-0.3,3.4-0.5,5.2-0.5c1.8,0,3.5,0.2,5.2,0.5c1.7,0.3,3.2,0.9,4.5,1.7
			c1.3,0.8,2.4,1.9,3.3,3.2c0.9,1.3,1.4,3,1.6,5h-8.6c-0.1-1.7-0.8-2.9-2-3.5c-1.2-0.6-2.6-0.9-4.2-0.9c-0.5,0-1.1,0-1.6,0.1
			c-0.6,0.1-1.1,0.2-1.6,0.4c-0.5,0.2-0.9,0.5-1.2,0.9c-0.3,0.4-0.5,0.9-0.5,1.6c0,0.8,0.3,1.5,0.9,2c0.6,0.5,1.4,0.9,2.3,1.2
			c1,0.3,2,0.6,3.3,0.9c1.2,0.3,2.5,0.5,3.7,0.8c1.3,0.3,2.6,0.7,3.8,1.1c1.2,0.4,2.4,1,3.3,1.7c1,0.7,1.8,1.6,2.3,2.6
			c0.6,1,0.9,2.3,0.9,3.8c0,2.2-0.4,4-1.3,5.4c-0.9,1.5-2,2.6-3.4,3.5c-1.4,0.9-3,1.5-4.8,1.9c-1.8,0.4-3.6,0.5-5.5,0.5
			c-1.9,0-3.8-0.2-5.6-0.6c-1.8-0.4-3.4-1-4.8-1.9c-1.4-0.9-2.6-2.1-3.5-3.5c-0.9-1.5-1.4-3.3-1.5-5.5h8.6
			C302.5,39.9,302.7,40.7,303.1,41.4z"/>
	</g>
</g>
<path fill="#F6F6F6" d="M56.6,16.9c1.2,0,2.3,0.2,3.2,0.5c0.9,0.4,1.6,0.8,2.1,1.4c0.6,0.6,1,1.3,1.2,2c0.3,0.8,0.4,1.6,0.4,2.4
	c0,0.8-0.1,1.6-0.4,2.4c-0.3,0.8-0.7,1.5-1.2,2.1c-0.6,0.6-1.3,1.1-2.1,1.4c-0.9,0.4-1.9,0.5-3.2,0.5H52v7.2h-4.4v-20H56.6z
	 M55.4,26.3c0.5,0,1,0,1.5-0.1c0.5-0.1,0.9-0.2,1.2-0.4c0.4-0.2,0.6-0.5,0.9-0.9c0.2-0.4,0.3-0.9,0.3-1.5c0-0.6-0.1-1.1-0.3-1.5
	c-0.2-0.4-0.5-0.7-0.9-0.9c-0.4-0.2-0.8-0.4-1.2-0.4c-0.5-0.1-1-0.1-1.5-0.1H52v6H55.4z"/>
</svg>
